<?xml version="1.0" encoding="UTF-8"?>
<svg version="1.1" xmlns="http://www.w3.org/2000/svg" width="600" height="600">
<path d="M0 0 C198 0 396 0 600 0 C600 198 600 396 600 600 C402 600 204 600 0 600 C0 402 0 204 0 0 Z " fill="#85FE16" transform="translate(0,0)"/>
<path d="M0 0 C198 0 396 0 600 0 C600 198 600 396 600 600 C402 600 204 600 0 600 C0 402 0 204 0 0 Z M262 53 C260.49095401 53.21922271 258.98184402 53.43800548 257.47265625 53.65625 C219.16173827 59.50351925 183.82239205 76.69709214 152.75 99.3125 C151.9755957 99.87493408 151.20119141 100.43736816 150.40332031 101.0168457 C146.09183158 104.22215926 142.22843606 107.60658379 138.4921875 111.46655273 C136.79000199 113.21580456 134.99333854 114.80559563 133.125 116.375 C110.10857568 136.2750806 93.09532918 161.7741657 79.98583984 188.99145508 C79.27474245 190.44024118 78.54331253 191.87910946 77.79931641 193.3112793 C74.66899393 199.37187502 72.19745712 205.48343787 70 211.9375 C69.48518066 213.44401123 69.48518066 213.44401123 68.95996094 214.98095703 C61.34361159 237.61863885 56.44633426 261.05245052 56 285 C55.97728027 286.0830542 55.97728027 286.0830542 55.95410156 287.18798828 C55.86039585 292.46179126 55.89915986 297.72665406 56 303 C56.02513672 304.92779297 56.02513672 304.92779297 56.05078125 306.89453125 C57.9597407 361.59985483 81.46350626 417.27324808 119 457 C120.17229678 458.34929564 121.33915821 459.70333672 122.5 461.0625 C132.47322283 472.4867922 143.90817841 481.93482484 156 491 C156.77730469 491.58523438 157.55460937 492.17046875 158.35546875 492.7734375 C210.19886803 530.39431131 275.59921558 544.71608504 338.59375 535.1875 C390.06601174 526.77720703 435.8610732 502.27882101 473 466 C473.8353125 465.19304687 474.670625 464.38609375 475.53125 463.5546875 C517.33022221 422.55954168 542.33356166 362.29950555 544 304 C544.04084717 302.68684814 544.04084717 302.68684814 544.08251953 301.34716797 C544.75633711 276.05993855 544.17420733 244.34422573 533 221 C531.35161233 219.35407877 531.35161233 219.35407877 529.5625 218.0625 C525.05878395 214.57021171 523.20397032 210.52906117 522 205 C522.02953309 202.9568468 522.11608968 200.91397407 522.25 198.875 C522.47796327 189.97407063 518.42377181 183.40349035 514 176 C513.49065918 175.14664063 512.98131836 174.29328125 512.45654297 173.4140625 C501.08748734 154.60374943 488.32486878 137.73434777 473 122 C472.1028125 121.06285156 471.205625 120.12570313 470.28125 119.16015625 C464.55291449 113.27773576 458.47265178 108.04522287 452 103 C451.43071777 102.54898926 450.86143555 102.09797852 450.27490234 101.63330078 C440.13189995 93.62252622 429.52674571 86.70060964 418.29345703 80.31152344 C416.24990398 79.14290869 414.23230905 77.93932992 412.21484375 76.7265625 C404.91398908 72.61930786 399.18964812 71.47047355 390.99267578 71.34008789 C384.9824972 71.19527266 380.54755522 69.99297531 376 66 C375.40703125 65.17113281 374.8140625 64.34226562 374.203125 63.48828125 C363.90696875 51.85946647 332.64417824 51.09752351 317.89257812 50.14501953 C299.01158516 49.19842012 280.66006626 50.0575454 262 53 Z " fill="#FEFEFE" transform="translate(0,0)"/>
<path d="M0 0 C4.34834644 0.61186864 7.86827933 2.24439252 11.6875 4.3125 C12.65502197 4.83384521 12.65502197 4.83384521 13.64208984 5.36572266 C32.11884118 15.55721166 48.82886383 28.39728572 64 43 C64.86890869 43.82806152 64.86890869 43.82806152 65.75537109 44.67285156 C74.33938795 52.88405807 81.93503304 61.45690151 89 71 C89.41701172 71.55091309 89.83402344 72.10182617 90.26367188 72.66943359 C97.75775081 82.57482888 104.00943108 93.12986885 110 104 C110.62003906 105.093125 111.24007813 106.18625 111.87890625 107.3125 C113.12996652 110.31155737 113.14613714 111.05655244 112 114 C110.56396484 115.34936523 110.56396484 115.34936523 108.7109375 116.55859375 C108.02386719 117.02031982 107.33679688 117.4820459 106.62890625 117.95776367 C105.51322266 118.69023315 105.51322266 118.69023315 104.375 119.4375 C95.6683218 125.36441282 87.76149693 131.89308715 80 139 C79.14792969 139.76828125 78.29585938 140.5365625 77.41796875 141.328125 C56.69341194 160.92753074 45.33984655 188.93978913 40.93530273 216.59985352 C39.54840939 225.29631966 37.74376237 233.60787164 35 242 C34.62617188 243.21558594 34.25234375 244.43117188 33.8671875 245.68359375 C28.05252055 263.49483674 17.2576223 278.94864905 4 292 C2.86498047 293.22203125 2.86498047 293.22203125 1.70703125 294.46875 C-4.1611027 300.71099085 -10.85536601 305.36873049 -18 310 C-19.21623047 310.81791016 -19.21623047 310.81791016 -20.45703125 311.65234375 C-32.11483494 319.13955327 -45.64412878 323.64408312 -59 327 C-60.24523437 327.32097656 -60.24523437 327.32097656 -61.515625 327.6484375 C-93.7300771 335.42045566 -127.76811715 327.37873288 -155.76953125 310.80078125 C-162.3230412 306.79342218 -168.23749352 302.35115435 -173.81640625 297.04296875 C-176.00682022 294.93716434 -176.00682022 294.93716434 -178.5625 292.97265625 C-182.1894584 290.03737742 -185.03619307 286.58706834 -188 283 C-188.48339844 282.41605469 -188.96679688 281.83210938 -189.46484375 281.23046875 C-210.73026402 254.19216431 -219.87586328 219.67112267 -216.32763672 185.56982422 C-211.91956224 150.99501646 -194.9473974 120.9505667 -168.21484375 98.6796875 C-158.48996842 91.37528924 -147.86192464 85.68751249 -136.8125 80.6875 C-136.10085693 80.36201172 -135.38921387 80.03652344 -134.65600586 79.70117188 C-125.18898804 75.53832368 -115.42761594 73.60328828 -105.25 72.0625 C-62.94356078 65.23752304 -32.10722093 44.53215954 -7.0859375 9.99609375 C-4.70141901 6.67970395 -2.34374777 3.34530592 0 0 Z " fill="#85FE16" transform="translate(400,81)"/>
<path d="M0 0 C0.97300049 0.19295654 1.94600098 0.38591309 2.94848633 0.5847168 C11.83220703 2.48378145 18.67115368 4.9005565 25 11.5625 C30.24542921 15.12189839 33.16812828 15.88607667 39.625 15.625 C51.2339472 15.7617276 60.326119 21.68401492 70 27.5625 C70.78503906 28.03606934 71.57007813 28.50963867 72.37890625 28.99755859 C82.05324525 34.89882242 91.22692147 41.39402423 100 48.5625 C100.55220215 49.01173828 101.1044043 49.46097656 101.67333984 49.92382812 C115.02116061 60.8637918 127.48927008 72.84323148 138 86.5625 C138.92949987 87.7397315 139.85920027 88.9168047 140.7890625 90.09375 C148.25187795 99.66424397 154.68400058 109.70681908 160.68408203 120.25146484 C161.51350326 121.70810702 162.35183384 123.15974615 163.20263672 124.60400391 C167.57374462 132.05129106 169.49781157 137.77411306 169.0078125 146.51953125 C168.99523921 151.41682634 170.38083491 155.44229294 173 159.5625 C174.63265186 160.94320776 174.63265186 160.94320776 176.4375 162.125 C187.08021866 170.31170666 188.00971274 196.03133928 189.69140625 208.46484375 C197.55415265 272.92765789 178.47618019 338.30029657 138.9765625 389.49291992 C132.7913591 397.28165982 125.94438426 404.45347684 119 411.5625 C117.78957031 412.81546875 117.78957031 412.81546875 116.5546875 414.09375 C95.56478243 435.49522184 69.44077268 451.78850713 42 463.5625 C41.20368164 463.90619629 40.40736328 464.24989258 39.58691406 464.60400391 C18.11031752 473.70997829 -4.82034674 479.16583832 -28 481.5625 C-29.2478125 481.69269531 -30.495625 481.82289063 -31.78125 481.95703125 C-35.52102004 482.26729978 -39.25021485 482.45340612 -43 482.5625 C-43.85368164 482.58973145 -44.70736328 482.61696289 -45.58691406 482.64501953 C-60.97939511 483.06771461 -75.79137481 481.88865535 -91 479.5625 C-91.77923828 479.45035156 -92.55847656 479.33820313 -93.36132812 479.22265625 C-132.49972273 473.55650797 -168.52514415 456.34029036 -200.25 433.25 C-201.0244043 432.68756592 -201.79880859 432.12513184 -202.59667969 431.5456543 C-206.90816842 428.34034074 -210.77156394 424.95591621 -214.5078125 421.09594727 C-216.20999801 419.34669544 -218.00666146 417.75690437 -219.875 416.1875 C-242.95181117 396.23520872 -260.08403574 370.60819266 -273.17431641 343.28320312 C-273.87956143 341.81349084 -274.60031807 340.35123876 -275.32421875 338.890625 C-288.84959281 310.67157214 -296.41723661 278.82999741 -297 247.5625 C-297.01514648 246.84046387 -297.03029297 246.11842773 -297.04589844 245.37451172 C-297.13960415 240.10070874 -297.10084014 234.83584594 -297 229.5625 C-296.98324219 228.27730469 -296.96648437 226.99210938 -296.94921875 225.66796875 C-296.20369637 204.30342736 -291.70166057 182.82044989 -285 162.5625 C-284.74524902 161.78326172 -284.49049805 161.00402344 -284.22802734 160.20117188 C-273.77843763 128.78033659 -256.76365614 99.65441777 -234 75.5625 C-232.82770322 74.21320436 -231.66084179 72.85916328 -230.5 71.5 C-220.52677717 60.0757078 -209.09182159 50.62767516 -197 41.5625 C-196.22269531 40.97726563 -195.44539063 40.39203125 -194.64453125 39.7890625 C-160.48994208 15.00431638 -119.82976725 0.13108179 -78 -4.4375 C-77.15211914 -4.5317627 -76.30423828 -4.62602539 -75.43066406 -4.72314453 C-50.06631764 -7.30202224 -24.90314561 -4.99062961 0 0 Z M-149 22.5625 C-150.19230225 23.06885986 -150.19230225 23.06885986 -151.40869141 23.58544922 C-172.27797346 32.50169398 -191.21483118 45.36147362 -208 60.5625 C-209.14855469 61.57376953 -209.14855469 61.57376953 -210.3203125 62.60546875 C-220.41936104 71.54898352 -229.71382204 80.90688602 -238 91.5625 C-238.44424316 92.11969727 -238.88848633 92.67689453 -239.34619141 93.25097656 C-258.99923188 117.94031934 -273.35001729 146.30617607 -281.04296875 176.90234375 C-281.79023923 179.76027208 -282.62077808 182.53842836 -283.51171875 185.3515625 C-285.07696481 190.5206397 -285.92636065 195.65302722 -286.625 201 C-286.80675781 202.29647461 -286.80675781 202.29647461 -286.9921875 203.61914062 C-288.48720579 214.54739932 -289.17001243 225.27920203 -289.125 236.3125 C-289.12016602 237.55604248 -289.11533203 238.79958496 -289.11035156 240.08081055 C-288.69767738 303.09203137 -263.82936599 360.64886806 -220 405.5625 C-219.14277344 406.44808594 -218.28554687 407.33367187 -217.40234375 408.24609375 C-195.51226699 430.51164352 -168.64689827 446.5560794 -140 458.5625 C-138.94619141 459.01230225 -138.94619141 459.01230225 -137.87109375 459.47119141 C-100.90545744 475.07870038 -58.42498544 477.89821232 -19 472.5625 C-18.29762207 472.47129883 -17.59524414 472.38009766 -16.87158203 472.28613281 C3.82602873 469.48317768 23.92224792 462.90671122 43 454.5625 C44.07290283 454.10520508 44.07290283 454.10520508 45.16748047 453.63867188 C70.86219338 442.62580256 93.08642928 425.97244263 113 406.5625 C114.02080744 405.58200429 115.04163942 404.60153413 116.0625 403.62109375 C122.20389013 397.62470867 127.75341013 391.3527294 133 384.5625 C133.41185547 384.03769043 133.82371094 383.51288086 134.24804688 382.97216797 C152.54535714 359.53647771 165.52629967 332.9866583 174 304.5625 C174.36134033 303.36246338 174.36134033 303.36246338 174.72998047 302.13818359 C186.36138621 262.8529291 188.06111198 214.74583594 175 175.5625 C170.89715986 176.93982999 168.33157616 178.79893659 165.1875 181.75 C162.15263884 184.56936806 159.10911679 187.3358419 155.9375 190 C148.92431818 196.18230285 143.12697373 202.90924202 138.25 210.875 C137.89752197 211.4421875 137.54504395 212.009375 137.18188477 212.59375 C130.91341183 223.24647962 128.15228177 234.53000591 126.08938599 246.55847168 C122.34908204 268.11811874 116.69003919 288.34639716 106 307.5625 C105.42507813 308.6246875 104.85015625 309.686875 104.2578125 310.78125 C85.22402438 344.81401401 53.56109877 370.48818845 17 383.5625 C16.3802832 383.78776367 15.76056641 384.01302734 15.12207031 384.24511719 C6.23159029 387.45595 -2.6853236 389.92114733 -12 391.5625 C-13.14984375 391.76875 -14.2996875 391.975 -15.484375 392.1875 C-59.27186562 398.8387644 -103.99215849 387.42231206 -139.74658203 361.54858398 C-155.73033906 349.6937779 -169.23232402 336.35377534 -180 319.5625 C-180.71542969 318.49386719 -181.43085938 317.42523438 -182.16796875 316.32421875 C-198.4602346 291.28896743 -206.56945786 262.17858864 -208 232.5625 C-208.05929688 231.48484375 -208.11859375 230.4071875 -208.1796875 229.296875 C-208.25510141 226.36411197 -208.15847291 223.49248805 -208 220.5625 C-207.9695459 219.84320313 -207.9390918 219.12390625 -207.90771484 218.3828125 C-206.49296521 188.23359481 -197.52292281 157.39538462 -180 132.5625 C-179.28199219 131.54414063 -178.56398438 130.52578125 -177.82421875 129.4765625 C-172.94731886 122.78872396 -167.69199877 116.56664064 -162 110.5625 C-161.11828125 109.61632812 -160.2365625 108.67015625 -159.328125 107.6953125 C-147.81990759 95.59337794 -134.56242098 86.24971274 -119.80615234 78.51025391 C-118.1706909 77.65206773 -116.54744508 76.77070068 -114.92578125 75.88671875 C-97.68048485 66.7817669 -78.56827236 62.28686123 -59.45166016 59.09912109 C-29.77430242 54.12128133 -8.80515251 37.83122475 9.0390625 14.12109375 C10.17493714 12.58392963 10.17493714 12.58392963 10 10.5625 C-42.65588504 -4.83869378 -99.0535994 0.88367409 -149 22.5625 Z M47 25.5625 C45.32539961 27.6330799 43.84792692 29.66745967 42.375 31.875 C41.48079587 33.16999773 40.58361462 34.46294437 39.68359375 35.75390625 C39.00852783 36.72287842 39.00852783 36.72287842 38.31982422 37.71142578 C32.53199717 45.82894422 25.76419425 53.25666636 19 60.5625 C18.19369141 61.46742187 18.19369141 61.46742187 17.37109375 62.390625 C-1.48235128 82.61437055 -30.43179134 93.88710186 -57.21289062 97.57543945 C-78.55405866 100.54773023 -99.9958512 107.908611 -117 121.5625 C-117.77601563 122.14 -118.55203125 122.7175 -119.3515625 123.3125 C-131.66243891 132.69221536 -141.52045049 143.68040558 -150 156.5625 C-150.55042969 157.35527344 -151.10085937 158.14804688 -151.66796875 158.96484375 C-169.85915357 186.71493534 -173.25413286 222.73831525 -167.06640625 254.62890625 C-161.82458817 278.96896831 -149.95842809 299.64926354 -132.4140625 317.140625 C-131.01040365 318.54882644 -129.6247074 319.97635006 -128.2890625 321.44921875 C-118.15900947 332.41155313 -104.43228453 339.46109143 -91 345.5625 C-89.94554687 346.04589844 -88.89109375 346.52929688 -87.8046875 347.02734375 C-78.89337295 350.77647737 -69.60000801 352.51264454 -60.12158203 354.1862793 C-58.41930903 354.48814382 -56.7222582 354.81939158 -55.02734375 355.16015625 C-22.11549344 359.53424732 12.9291226 348.51092619 39 328.5625 C42.46707093 325.69093761 45.75200703 322.6782457 49 319.5625 C49.83273437 318.79292969 50.66546875 318.02335937 51.5234375 317.23046875 C58.07244788 310.99379579 63.11401108 304.12162054 68 296.5625 C68.6909375 295.54414063 69.381875 294.52578125 70.09375 293.4765625 C81.29592287 276.37170624 85.90129079 256.86500318 89.10327148 236.88867188 C95.28170618 198.50926456 118.23831471 168.76585271 149.18945312 146.30200195 C152.78375758 143.70919887 156.387829 141.130346 160 138.5625 C159.22718607 134.22913989 157.77297584 130.72629521 155.6875 126.875 C155.33993652 126.22998535 154.99237305 125.5849707 154.63427734 124.92041016 C144.44278834 106.44365882 131.60271428 89.73363617 117 74.5625 C116.44795898 73.98322754 115.89591797 73.40395508 115.32714844 72.80712891 C107.11594193 64.22311205 98.54309849 56.62746696 89 49.5625 C88.44908691 49.14548828 87.89817383 48.72847656 87.33056641 48.29882812 C68.53038386 33.14234939 68.53038386 33.14234939 47 25.5625 Z " fill="#0D1935" transform="translate(353,55.4375)"/>
<path d="M0 0 C0.556875 0.32613281 1.11375 0.65226562 1.6875 0.98828125 C8.58396676 4.93744043 15.04410771 8.00551346 23 9 C16.13353321 19.9055649 7.77018096 29.58809848 -1 39 C-1.71929687 39.7734375 -2.43859375 40.546875 -3.1796875 41.34375 C-23.06552761 62.00803936 -50.06427262 72.44173049 -78.0625 75.9375 C-111.33975895 80.38982069 -144.17609424 100.33003259 -164.5625 126.6875 C-182.78008188 151.89704112 -192.17143807 179.12197283 -192.1875 210.25 C-192.20586914 212.10044922 -192.20586914 212.10044922 -192.22460938 213.98828125 C-192.27880734 248.34978969 -178.04810657 281.6698042 -154 306 C-153.22398437 306.84820312 -152.44796875 307.69640625 -151.6484375 308.5703125 C-135.28354314 326.02984862 -112.72072338 336.63747083 -90 343 C-89.32662598 343.19352051 -88.65325195 343.38704102 -87.95947266 343.58642578 C-61.39324353 350.82045488 -27.72448692 347.45920804 -3 336 C-2.06365723 335.56880859 -2.06365723 335.56880859 -1.10839844 335.12890625 C30.00443278 320.64664199 56.69170904 296.01838657 69.03833008 263.47705078 C70.42009472 259.67053868 71.72481597 255.84329231 73 252 C73.26578857 251.23921143 73.53157715 250.47842285 73.80541992 249.69458008 C75.41174403 245.05392401 76.59828969 240.54032484 77.4375 235.6875 C77.69225348 234.29028157 77.94748462 232.89315018 78.203125 231.49609375 C78.61246458 229.21296695 79.01178492 226.92918786 79.39257812 224.64111328 C85.60759579 187.46359821 105.7325008 158.96205283 136 137 C138.95923394 134.93094212 141.94077999 132.91808238 145 131 C145.11214844 131.90878906 145.11214844 131.90878906 145.2265625 132.8359375 C146.21461893 139.13237555 148.21117872 143.58508216 151.7578125 148.87109375 C153 151 153 151 153 154 C150.96317927 155.95245537 148.93329353 157.72515345 146.75 159.5 C145.45729556 160.58470192 144.165647 161.67066331 142.875 162.7578125 C142.22273438 163.3034082 141.57046875 163.84900391 140.8984375 164.41113281 C126.98709702 176.05400882 117.4048762 188.38369604 110 205 C109.61199219 205.84175781 109.22398437 206.68351563 108.82421875 207.55078125 C105.93935632 214.5345988 104.84735491 221.84310825 103.56518555 229.24658203 C97.91102951 261.72187439 86.91821087 290.90419019 65 316 C64.14535156 316.98871094 63.29070312 317.97742188 62.41015625 318.99609375 C40.96274638 343.36921007 12.21166232 359.07200686 -19 367 C-20.03511719 367.28617187 -21.07023438 367.57234375 -22.13671875 367.8671875 C-33.5379532 370.93282032 -44.73759534 371.16164301 -56.5 371.125 C-57.74136719 371.12886719 -58.98273438 371.13273437 -60.26171875 371.13671875 C-73.52199212 371.12274586 -85.26690051 369.55314395 -98 366 C-98.65661621 365.81953125 -99.31323242 365.6390625 -99.98974609 365.453125 C-122.44045285 359.18729107 -143.56905244 348.60585593 -161 333 C-161.98355469 332.13632812 -162.96710938 331.27265625 -163.98046875 330.3828125 C-173.87717988 321.58835288 -182.8099139 312.16690364 -190 301 C-190.68578125 299.97132813 -191.3715625 298.94265625 -192.078125 297.8828125 C-209.53814551 270.90125051 -218.41350602 238.04404426 -217 206 C-216.96422852 205.15727539 -216.92845703 204.31455078 -216.89160156 203.44628906 C-215.08330152 166.68632101 -202.05269877 132.87369776 -178 105 C-177.14437644 103.91781696 -176.28995279 102.83468246 -175.4375 101.75 C-172.86870958 98.85187747 -170.15046596 96.39690556 -167.19921875 93.8984375 C-165.7298429 92.63002425 -164.29410223 91.32160474 -162.89453125 89.9765625 C-143.64542895 71.6219968 -118.3186144 59.87017669 -92.625 53.875 C-90.97419434 53.48272217 -90.97419434 53.48272217 -89.29003906 53.08251953 C-82.81314493 51.57022133 -76.42024914 50.3712452 -69.83203125 49.48046875 C-41.9556621 44.75109854 -19.47188451 26.9619876 -3.1875 4.625 C-2.11497342 3.09029186 -1.04806496 1.5515161 0 0 Z " fill="#E7FD7E" transform="translate(369,71)"/>
<path d="M0 0 C0.62719862 2.62449131 1.25178978 5.24956119 1.875 7.875 C2.04902344 8.60203125 2.22304688 9.3290625 2.40234375 10.078125 C9.14356455 38.54105728 9.83924486 68.02893639 6 97 C5.86319824 98.06009277 5.86319824 98.06009277 5.72363281 99.14160156 C2.91938485 119.83399969 -3.65785679 139.92697611 -12 159 C-12.30486328 159.71526855 -12.60972656 160.43053711 -12.92382812 161.16748047 C-23.93669744 186.86219338 -40.59005737 209.08642928 -60 229 C-60.98049571 230.02080744 -61.96096587 231.04163942 -62.94140625 232.0625 C-81.59438912 251.16655074 -103.94683014 265.67260111 -128 277 C-128.65081543 277.30679687 -129.30163086 277.61359375 -129.97216797 277.9296875 C-182.61176047 302.46075974 -247.09296835 307.24147754 -302.18457031 287.88085938 C-309.55507318 285.1481003 -316.79038098 282.12927606 -324 279 C-324.79486816 278.66242676 -325.58973633 278.32485352 -326.40869141 277.97705078 C-352.80738952 266.69840434 -381.53930472 248.2222849 -399 225 C-396.34257504 226.29620632 -393.79098383 227.68457841 -391.26171875 229.21484375 C-334.88158559 262.90510554 -270.31387532 274.97157235 -205.9375 259.55859375 C-185.56930297 254.36757034 -166.61034863 246.71442164 -148 237 C-147.26942383 236.61956543 -146.53884766 236.23913086 -145.78613281 235.84716797 C-129.95662217 227.48418508 -115.6929321 216.33218051 -102.51171875 204.2890625 C-100.8200968 202.74739771 -99.11394349 201.22154556 -97.39453125 199.7109375 C-92.15636829 195.09881823 -87.45672054 190.36333392 -83 185 C-82.26394531 184.15179688 -81.52789062 183.30359375 -80.76953125 182.4296875 C-69.02595401 168.72573568 -59.28345085 154.02220004 -51 138 C-50.38560059 136.83404297 -50.38560059 136.83404297 -49.75878906 135.64453125 C-31.34771597 100.40335153 -23.2491057 61.58881641 -24 22 C-25.65 23.32 -27.3 24.64 -29 26 C-24.93077994 16.38784234 -13.99393064 9.2444602 -6 3 C-5.27554687 2.42121094 -4.55109375 1.84242188 -3.8046875 1.24609375 C-2 0 -2 0 0 0 Z " fill="#77FA04" transform="translate(528,231)"/>
<path d="M0 0 C0.66 0.33 1.32 0.66 2 1 C4.5022377 1.19463997 6.98378406 1.3337819 9.49023438 1.43310547 C10.65233177 1.48461761 10.65233177 1.48461761 11.83790588 1.53717041 C13.5298172 1.61167419 15.22181959 1.6841307 16.91389465 1.75481796 C19.62881682 1.86865789 22.34340312 1.98867667 25.0579834 2.11038208 C32.78128056 2.45555114 40.50502478 2.79009717 48.22900391 3.11962891 C67.55528751 3.94732752 86.85810189 4.81511134 106.12890625 6.53515625 C106.82235138 6.59664227 107.51579651 6.65812828 108.23025513 6.72147751 C135.22490678 9.14993785 135.22490678 9.14993785 141 13 C140.67 13.99 140.34 14.98 140 16 C132.59043434 18.86791663 124.29778466 19.69748313 116.4375 20.5 C115.25937744 20.62109131 114.08125488 20.74218262 112.86743164 20.86694336 C81.44106998 23.89888345 49.83559203 25.12117193 18.2890625 26.07421875 C17.58326467 26.09572463 16.87746684 26.11723051 16.15028119 26.13938808 C-17.85075734 27.16954107 -51.83978805 27.31742074 -85.85408783 27.25754547 C-90.6490822 27.24931464 -95.44407475 27.24578724 -100.23907471 27.24261475 C-137.78982203 27.2144774 -175.33444874 27.08756472 -212.875 26.125 C-213.65890736 26.10528641 -214.44281471 26.08557281 -215.25047684 26.06526184 C-244.43227742 25.32508751 -273.66652884 24.12009168 -302.75 21.5625 C-304.12367643 21.45220601 -305.49737469 21.34218361 -306.87109375 21.23242188 C-314.080891 20.62926473 -321.1970305 19.74216586 -328.328125 18.52734375 C-329.41259918 18.34710411 -329.41259918 18.34710411 -330.51898193 18.16322327 C-333.94253106 17.54818148 -336.0626453 16.95823647 -339 15 C-338.67 14.01 -338.34 13.02 -338 12 C-329.70894036 8.64603518 -320.25459649 8.20204043 -311.4375 7.4375 C-310.23931641 7.32470703 -309.04113281 7.21191406 -307.80664062 7.09570312 C-303.53963885 6.70421501 -299.27073905 6.34782924 -295 6 C-294.04526794 5.9206723 -293.09053589 5.8413446 -292.10687256 5.75961304 C-274.32986722 4.29801605 -256.57663016 3.47974143 -238.75 2.9375 C-235.02812413 2.82090352 -231.30631625 2.70262129 -227.58457947 2.58166504 C-225.21483494 2.50477035 -222.84501218 2.43024419 -220.47511292 2.35827637 C-214.39554128 2.16256774 -208.3801459 1.80708607 -202.32421875 1.24609375 C-196.45504561 0.81687835 -192.33324601 1.58995283 -187.0625 4.125 C-185.53567721 4.78418664 -184.00698687 5.4390626 -182.4765625 6.08984375 C-181.35362793 6.57880127 -181.35362793 6.57880127 -180.20800781 7.07763672 C-124.40605876 30.38809266 -58.64203378 23.49236714 -3.8215332 1.75268555 C-2.52632525 1.21748569 -1.25347597 0.62673799 0 0 Z " fill="#D6E3DF" transform="translate(399,516)"/>
<path d="M0 0 C0 0.33 0 0.66 0 1 C-6.37588764 1.1250174 -6.37588764 1.1250174 -9.3449707 0.53027344 C-20.06220196 -1.61021634 -31.40834743 -1.23670433 -42.3125 -1.25 C-43.41360611 -1.25250763 -43.41360611 -1.25250763 -44.53695679 -1.25506592 C-57.36366355 -1.25680045 -69.87845123 -0.29497959 -82.57080078 1.63720703 C-84.60307872 1.9407211 -86.64286542 2.19338076 -88.68359375 2.43359375 C-99.06157438 3.71596843 -109.03097242 6.94710676 -119 10 C-119.72606445 10.22091309 -120.45212891 10.44182617 -121.20019531 10.66943359 C-129.47057143 13.214318 -137.33888356 16.24971224 -145.10205078 20.07080078 C-147.25662146 21.1256369 -149.42338469 22.15340496 -151.58984375 23.18359375 C-168.59081022 31.36794331 -184.37452299 41.0647014 -199 53 C-199.99515625 53.79148438 -200.9903125 54.58296875 -202.015625 55.3984375 C-216.3991544 67.03096888 -229.91907239 80.36910008 -240.80126953 95.35253906 C-242.0135225 97.01858448 -243.25260363 98.66186715 -244.49609375 100.3046875 C-270.68952198 135.39072598 -284.81982729 176.04645361 -291 219 C-291.10820068 219.75095947 -291.21640137 220.50191895 -291.32788086 221.27563477 C-292.30235107 229.30697312 -292.18606977 237.40549043 -292.18530273 245.4831543 C-292.1874745 248.03256309 -292.2056415 250.58152758 -292.22460938 253.13085938 C-292.25625693 262.70847512 -291.74093931 272.00433881 -290.4309082 281.49389648 C-290.07546546 284.38597201 -289.91145519 287.09412019 -290 290 C-292.29450628 286.13826399 -293.06969803 281.90165229 -294 277.5625 C-294.17442627 276.75772217 -294.34885254 275.95294434 -294.52856445 275.1237793 C-301.3384804 243.14996636 -300.78729147 209.92983457 -294 178 C-293.82484863 177.17177734 -293.64969727 176.34355469 -293.46923828 175.49023438 C-290.94180259 163.79323493 -287.78264074 152.97194052 -283 142 C-282.36932437 140.37719433 -281.74378482 138.75237683 -281.125 137.125 C-269.34555738 108.08175889 -251.81739287 83.35711905 -230 61 C-228.71416016 59.67162109 -228.71416016 59.67162109 -227.40234375 58.31640625 C-205.51226699 36.05085648 -178.64689827 20.0064206 -150 8 C-149.29746094 7.70013184 -148.59492188 7.40026367 -147.87109375 7.09130859 C-102.52504549 -12.05455025 -47.04484855 -13.76003515 0 0 Z " fill="#B7FD4B" transform="translate(363,66)"/>
<path d="M0 0 C3.49643807 2.69517101 4.76540763 4.09514373 5.875 8.375 C4.51423104 14.0124714 0.65697077 15.87510512 -4 19 C-11.44728518 24.25627229 -18.3889266 29.7169949 -25 36 C-25.4758252 36.44859375 -25.95165039 36.8971875 -26.44189453 37.359375 C-42.18913167 52.29130419 -53.79732207 69.78088676 -63.2109375 89.28125 C-63.50194336 89.88324219 -63.79294922 90.48523438 -64.09277344 91.10546875 C-64.74043983 92.45796907 -65.37801827 93.81531917 -66.00878906 95.17578125 C-66.3487793 95.89121094 -66.68876953 96.60664063 -67.0390625 97.34375 C-67.34279785 97.99537109 -67.6465332 98.64699219 -67.95947266 99.31835938 C-69 101 -69 101 -72 103 C-75.04870111 103.42101111 -76.42253512 103.43250941 -78.9140625 101.56640625 C-86.77119008 92.36388011 -87.93894102 83.9814164 -87 72 C-84.30043826 53.07874741 -72.38428025 34.99005727 -60 21 C-59.38769531 20.30390625 -58.77539062 19.6078125 -58.14453125 18.890625 C-44.97951058 4.85542173 -18.82201438 -13.30146975 0 0 Z " fill="#B9FF4B" transform="translate(213,117)"/>
<path d="M0 0 C18.08984756 14.55052956 30.77269994 34.96723248 42 55 C42.41620605 55.7331543 42.83241211 56.46630859 43.26123047 57.22167969 C46.06186105 62.41069571 46.06186105 62.41069571 45.78149414 65.08154297 C44.44571042 68.36070213 41.36553383 69.88223166 38.5 71.75 C37.89285156 72.16121094 37.28570312 72.57242188 36.66015625 72.99609375 C32.17924626 76 32.17924626 76 31 76 C30.72027344 74.84886719 30.44054687 73.69773437 30.15234375 72.51171875 C26.01318817 55.88802268 20.35425762 40.47770764 13 25 C12.51394287 23.97374512 12.02788574 22.94749023 11.52709961 21.89013672 C8.51539594 15.69001331 5.15600622 9.90832097 1.3203125 4.1796875 C0 2 0 2 0 0 Z " fill="#76F805" transform="translate(467,128)"/>
<path d="M0 0 C2.89363555 1.70178976 5.07001013 3.12189717 6.5 6.25 C7.13153691 11.03163658 6.53088315 14.50373694 3.8828125 18.60546875 C0.65129995 22.44859526 -3.03005866 24.80935319 -7.99609375 25.6953125 C-15.31275893 26.0294068 -19.50360153 23.93907555 -24.9375 19.0625 C-27.1487102 15.08232163 -27.28695428 11.70399896 -26.5 7.25 C-21.10216664 -2.46610005 -9.62998115 -4.46916252 0 0 Z " fill="#B9FF4A" transform="translate(254.5,91.75)"/>
<path d="M0 0 C0.07476563 0.60585937 0.14953125 1.21171875 0.2265625 1.8359375 C1.21461893 8.13237555 3.21117872 12.58508216 6.7578125 17.87109375 C8 20 8 20 8 23 C6.77832031 24.41040039 6.77832031 24.41040039 5.078125 25.84765625 C4.46453125 26.37037109 3.8509375 26.89308594 3.21875 27.43164062 C2.5690625 27.96982422 1.919375 28.50800781 1.25 29.0625 C0.61578125 29.60455078 -0.0184375 30.14660156 -0.671875 30.70507812 C-3.7633261 33.31026973 -6.3284805 35.16424025 -10 37 C-11.32 28.09 -12.64 19.18 -14 10 C-11.875625 8.35 -9.75125 6.7 -7.5625 5 C-6.8929126 4.47792969 -6.2233252 3.95585937 -5.53344727 3.41796875 C-1.11111111 0 -1.11111111 0 0 0 Z " fill="#CCE661" transform="translate(514,202)"/>
</svg>
